<?xml version="1.0" encoding="utf-8"?>
<!-- Generator: Adobe Illustrator 18.0.0, SVG Export Plug-In . SVG Version: 6.00 Build 0)  -->
<!DOCTYPE svg PUBLIC "-//W3C//DTD SVG 1.1//EN" "http://www.w3.org/Graphics/SVG/1.1/DTD/svg11.dtd">
<svg version="1.1" xmlns="http://www.w3.org/2000/svg" xmlns:xlink="http://www.w3.org/1999/xlink" x="0px" y="0px"
	 viewBox="0 0 500 500" enable-background="new 0 0 500 500" xml:space="preserve">
<g id="Capa_1" display="none">
	<path display="inline" fill="#020304" d="M249.7,354H106.5v-8.5h143.2V354z M249.7,366.7H106.5v-8.5h143.2V366.7z M205.7,281.7
		c50.3-26.9,36.2,44,15.6,58.8h-92.9C187.3,326.3,174.5,298,205.7,281.7z M219.9,263.9C292.9,122.2,358.8-6.2,371.6,0.2
		c14.9,7.1-61,156-126.2,275.8C242.6,265.4,234.8,259.7,219.9,263.9z M249.7,446.1H44.8c-17,0-31.2-13.5-31.2-31.2H249v31.2H249.7z
		 M307.8,185.3c4.3-8.5,8.5-17,12.8-24.8H373c14.9,0,27.6,10.6,30.5,24.8 M249.7,399.3H71.7V190.9c0-17,13.5-31.2,31.2-31.2H261
		c-4.3,8.5-8.5,16.3-12.8,24.8H96.5v192.8H249v22H249.7z M455.2,198c17,0,31.2,13.5,31.2,31.2v202.7c0,17-13.5,31.2-31.2,31.2h-69.5
		v-61.7h82.9V224.9H322v54.6h-17v-50.3c0-17,13.5-31.2,31.2-31.2H455.2z M339,295.1c17,0,31.2,13.5,31.2,31.2v142.5
		c0,17-13.5,31.2-31.2,31.2h-42.5c-17,0-31.2-13.5-31.2-31.2V325.6c0-17,13.5-31.2,31.2-31.2H339V295.1z M360.2,465.3V324.9h-85.1
		V466h85.1V465.3z"/>
</g>
<g id="Capa_2" display="none">
	<g display="inline">
		<path fill="#FFFFFF" d="M86.5,179.7v260h138c0.7,17.4,11.4,32.8,26.8,39.5c-6.7,12.1-19.4,20.8-34.8,20.8H108.6
			c-21.4,0-39.5-17.4-39.5-39.5V181.1c0-21.4,17.4-39.5,39.5-39.5h107.9c2.7,0,5.4,0,8,0.7v36.9h-138V179.7z M110,295.6
			c4.7,0,8.7,4,8.7,8.7v37.5c0,4.7-4,8.7-8.7,8.7c-5.4,0-8.7-4-8.7-8.7v-37.5C101.3,299.7,104.6,295.6,110,295.6L110,295.6z
			 M122.7,355.9v-59h79.1v59c0,4-3.4,8-8,8H185v20.1c0,4.7-4,8.7-8.7,8.7c-5.4,0-8.7-4-8.7-8.7V364h-12.1v20.1c0,4.7-4,8.7-8.7,8.7
			c-5.4,0-8.7-4-8.7-8.7V364h-8.7C126,364,122.7,360.6,122.7,355.9z M182.3,261.5c12.1,6,20.1,16.8,20.1,30.2c0,0.7,0,1.3,0,2h-79.7
			c0-0.7,0-1.3,0-2c0-12.7,8-24.1,20.1-30.2l-6.7-10.1c-0.7-0.7,0-1.3,0.7-2c0.7-0.7,1.3,0,2,0.7l6.7,10.7c5.4-2,10.7-3.4,17.4-3.4
			c6,0,12.1,1.3,17.4,3.4l6.7-10.7c0.7-0.7,1.3-0.7,2-0.7c0.7,0.7,0.7,1.3,0.7,2L182.3,261.5z M144.1,280.2c2,0,4-2,4-4s-2-4-4-4
			c-2,0-4,2-4,4S141.5,280.2,144.1,280.2z M181,280.2c2,0,4-2,4-4s-2-4-4-4c-2,0-4,2-4,4S179,280.2,181,280.2z M215.2,295.6
			c4.7,0,8.7,4,8.7,8.7v37.5c0,4.7-4,8.7-8.7,8.7c-5.4,0-8.7-4-8.7-8.7v-37.5C206.4,299.7,209.8,295.6,215.2,295.6L215.2,295.6z
			 M283.5,458.5c-21.4,0-39.5-17.4-39.5-39.5V139.5c0-21.4,17.4-39.5,39.5-39.5h107.9c21.4,0,39.5,17.4,39.5,39.5v279.4
			c0,21.4-17.4,39.5-39.5,39.5H283.5z M261.4,138.2v260h152.1v-260H261.4z M375.3,309c-5.4,7.4-10.7,15.4-19.4,15.4
			c-8,0-10.7-5.4-20.1-5.4c-10.1,0-12.7,5.4-20.8,5.4c-8.7,0-14.7-8-20.1-16.1c-6.7-10.1-12.7-25.5-12.7-40.9c0-8,1.3-16.1,5.4-22.8
			c5.4-9.4,15.4-15.4,26.1-16.1c8,0,15.4,5.4,20.8,5.4c4.7,0,14.1-5.4,24.1-5.4c4,0,16.1,1.3,23.5,12.7c-0.7,0.7-14.1,7.4-14.1,24.1
			c0.7,18.8,16.8,24.8,16.8,24.8C384,291.6,382,300.3,375.3,309z M339.8,209.2c4.7-5.4,12.1-9.4,18.8-9.4c0.7,7.4-2,14.7-6.7,19.4
			c-4,5.4-11.4,10.1-18.1,9.4C331.7,220.6,335.8,213.9,339.8,209.2z"/>
	</g>
</g>
<g id="Capa_3" display="none">
	<g display="inline">
		<path fill="#FFFFFF" d="M7.6,500v-25.2h302.8c88.4,0,160.1-71.7,160.1-159.5c0-62-35.5-115.6-87.2-142c3.9-7.7,7.1-15.5,10.3-22.6
			c60,30.3,101.4,93,101.4,165.3c0.6,101.4-82,184-184,184H7.6z M129,279.2c16.8-84.6,91.7-148.5,181.4-148.5
			c7.7,0,14.8,0.6,22.6,1.3c-4.5,7.7-9,15.5-13.6,23.9c-3.2,0-5.8,0-9,0c-80.1,0-146.5,58.7-158.2,135.6c-1.3-1.3-3.2-2.6-5.2-3.9
			C142.5,283.1,136.1,280.5,129,279.2z M89.6,436.7c-19.4,17.4-37.4,25.8-52.9,25.8c-9,0-16.8-3.2-22.6-9c-5.8-5.8-9-13.6-9-22.6
			c0-12.3,5.2-23.2,16.1-32.9c10.3-9.7,33.6-22.6,69.1-39.4v-16.1c0-12.3-0.6-20-1.9-22.6c-1.3-3.2-3.9-5.8-7.7-8.4
			c-3.9-2.6-7.7-3.2-12.3-3.2c-7.7,0-13.6,1.9-18.7,5.2c-3.2,1.9-4.5,4.5-4.5,7.1c0,2.6,1.3,5.2,4.5,9c4.5,5.2,6.5,9.7,6.5,14.2
			c0,5.8-1.9,10.3-6.5,14.2c-3.9,3.9-9.7,5.8-16.1,5.8c-7.1,0-13.6-1.9-18.1-6.5c-5.2-4.5-7.1-9.7-7.1-15.5c0-8.4,3.2-16.1,9.7-23.9
			s15.5-13.6,27.1-17.4c11.6-3.9,23.9-5.8,36.2-5.8c15.5,0,27.1,3.2,36.2,9.7s14.8,13.6,17.4,21.3c1.3,4.5,2.6,16.1,2.6,32.9v62
			c0,21.9,3.9,29.7,10.3,28.4c14.2-1.9,40.7-44.5,60.7-55.5c58.1-31.6,42,51.6,18.7,68.4H120.6c-9,0-16.1-1.9-21.3-6.5
			C94.1,451.6,90.9,445.1,89.6,436.7z M89.6,423.8v-53.6c-13.6,8.4-23.9,16.8-31,25.8c-4.5,6.5-6.5,12.3-6.5,18.7
			c0,5.2,1.9,9.7,5.8,14.2c2.6,3.2,7.1,4.5,12.3,4.5C75.4,433.5,81.8,430.3,89.6,423.8z M225.8,373.5
			C310.4,208.2,386.5,59.7,401.4,66.8c16.8,8.4-71,180.8-146.5,319.6C251.6,375.4,242.6,368.3,225.8,373.5z"/>
	</g>
</g>
<g id="Capa_4">
	<g>
		<path fill="#020304" d="M435.6,215.6v232.5H64.4V215.6c0-18.8,15.6-34.4,34.4-34.4h301.9C420,181.3,435.6,196.3,435.6,215.6z
			 M407.5,424.4V208.8h-315v215.6H407.5z M396.9,231.9H103.1v-9.4h293.1v9.4H396.9z M396.9,411.9H103.1v-9.4h293.1v9.4H396.9z
			 M216.9,342.5v24.4l-87.5-38.1v-21.3l87.5-38.1v25l-61.2,23.8L216.9,342.5z M271.3,269.4L246.9,370c-0.6,3.1-1.3,5.6-1.9,8.1
			c-0.6,1.9-1.3,3.1-2.5,4.4c-1.3,1.3-3.1,1.9-5.6,1.9c-5.6,0-8.8-2.5-8.8-7.5c0-1.3,0.6-4.4,1.9-10l24.4-100.6
			c1.3-5.6,2.5-8.8,3.7-11.3c1.3-1.9,3.1-3.1,6.9-3.1c3.1,0,5,0.6,6.9,1.9c1.3,1.3,2.5,3.1,2.5,5.6
			C273.1,261.3,272.5,265,271.3,269.4z M370.6,329.4l-87.5,38.1v-24.4l61.3-23.8l-61.3-23.8v-24.4l87.5,37.5V329.4z M273.8,465.6
			H500c0,18.8-15.6,34.4-34.4,34.4H34.4C15.6,500,0,484.4,0,465.6h226.3v13.1h47.5V465.6z"/>
	</g>
</g>
<g id="Capa_5" display="none">
	<g display="inline">
		<path fill="#020304" d="M309.8,497.6h224.4c0,18.8-15,34.4-34.4,34.4H72.3c-18.8,0-34.4-15-34.4-34.4h224.4v13.1h46.9v-13.1H309.8
			z M442.3,457V243.3v-26.9c15.6,3.1,27.5,16.9,27.5,33.8v230.6H102.3V250.1c0-18.8,15-34.4,34.4-34.4H196v27.5h-66.3V457H442.3z
			 M377.9,107h46.9v333.8h-46.9V107z M301,278.3h46.9v162.5H301V278.3z M224.1,186.4H271v254.4h-46.9L224.1,186.4L224.1,186.4z
			 M147.9,357.6h46.9v83.8h-46.9V357.6z"/>
	</g>
</g>
<g id="Capa_6" display="none">
	<g display="inline">
		<path fill="#020304" d="M300.8,431.1v-7.5c-3.1,3.8-5.6,6.3-8.1,7.5H300.8z M187,431.1v-40l-16.9-56.3v96.3H187z M235.1,413.6
			c0,3.8,3.1,6.9,6.9,6.9c3.7,0,6.9-3.1,6.9-6.9V373c0-3.8-3.1-6.9-6.9-6.9c-3.8,0-6.9,3.1-6.9,6.9V413.6L235.1,413.6z M205.1,331.1
			h-20.6l10,36.9L205.1,331.1z M233.9,119.9c21.9,0,41.3,12.5,50.6,30.6h48.1c-2.5,6.9-3.8,13.8-3.8,21.2c0,1.3,0,3.1,0,4.4h-38.1
			v1.3v96.9c0,31.3-25.6,56.9-56.9,56.9h-13.1l-18.1,60v40h30.6c-7.5-3.1-12.5-10.6-12.5-19.4v-36.9c0-11.9,9.4-21.3,21.3-21.3
			c11.9,0,21.3,9.4,21.3,21.3v36.9c0,8.8-5,16.3-12.5,19.4h28.1c-3.1-2.5-4.4-8.1-4.4-15.6v-61.3h14.4v58.1c0,4.4,2.5,13.1,12.5,1.3
			v-59.4h14.4v76.3v1.9v56.3H175.1c-16.3,0-28.8-13.1-28.8-28.8V331.1H137c-31.3,0-56.9-25.6-56.9-56.9v-97.5
			c0-31.3,25.6-56.9,56.9-56.9H233.9z M273.9,274.3v-97.5c0-21.9-18.1-40-40-40H137c-21.9,0-40,18.1-40,40v97.5
			c0,21.9,18.1,40,40,40h96.9C255.8,314.3,273.9,296.1,273.9,274.3z M232.6,218c1.9,12.5-1.3,25-8.8,35c-7.5,10-18.8,16.9-31.3,18.8
			c-2.5,0.6-5,0.6-6.9,0.6c-10,0-20-3.1-28.1-9.4c-10-7.5-16.9-18.7-18.8-31.2c-1.9-12.5,1.3-25,8.8-35c7.5-10,18.8-16.9,31.3-18.8
			c4.4-0.6,9.4-0.6,13.8,0c10,1.3,19.4,6.3,26.2,13.1C226.4,198.6,230.8,208,232.6,218z M190.1,254.9c16.3-2.5,28.1-18.1,25.6-34.4
			c-1.9-13.1-12.5-23.8-25.6-25.6c-1.3,0-3.1-0.6-4.4-0.6c-1.3,0-3.1,0-4.4,0.6c-8.1,1.3-15,5.6-20,11.9c-5,6.3-6.9,14.4-5.6,22.5
			c1.3,8.1,5.6,15,11.9,20C173.9,254.3,182,256.1,190.1,254.9z M244.5,166.1c1.9,1.9,2.5,3.8,2.5,6.3s-0.6,4.4-2.5,6.3
			c-1.9,1.9-3.7,2.5-6.3,2.5c-2.5,0-4.4-0.6-6.3-2.5c-1.9-1.9-2.5-3.8-2.5-6.3s0.6-4.4,2.5-6.3c1.9-1.9,3.8-2.5,6.3-2.5
			C240.7,163.6,243.3,164.3,244.5,166.1z M347,224.9c9.4,1.3,18.1,0,27.5-4.4c-5-2.5-10-5-13.1-9.4s-5-8.8-5.6-14.4
			c3.8,0,6.9,1.9,10.6,1.3c-11.3-7.5-16.3-16.9-13.8-30c3.8,1.9,6.3,4.4,10,5c-8.1-12.5-8.1-24.4,1.3-36.3
			c5,9.4,10.6,17.5,17.5,23.8c7.5,6.9,15.6,11.9,25.6,15.6c3.1,1.3,3.8,0.6,4.4-2.5c3.1-15,15-24.4,30-22.5
			c7.5,0.6,13.1,4.4,17.5,10.6c1.9,2.5,3.8,3.1,6.9,3.1c4.4,0,8.1-0.6,13.1-1.9c-3.1,5.6-7.5,8.1-13.1,10.6
			c4.4,1.9,8.8,0.6,13.1,0.6c-3.7,3.8-7.5,6.3-11.3,8.1c-2.5,1.3-3.8,2.5-4.4,5c-9.4,37.5-43.8,61.3-81.9,57.5
			c-17.5-1.9-32.5-8.8-45.6-21.3c0-1.9,1.3-0.6,2.5-0.6C341.4,223.6,343.9,224.9,347,224.9z M447,281.8h-78.1H342v191.9h26.9h56.3
			v-88.8h-18.8V358h18.8v-14.4c-2.5-54.4,43.1-44.4,66.9-40.6l-4.4,27.5c-30.6-6.9-28.1,7.5-28.1,13.8V358h28.1l-2.5,26.9h-25.6V478
			v11.3c0,16.3-13.1,28.8-28.8,28.8h-72.5c-16.2,0-28.7-13.1-28.7-28.8V283c0-16.3,13.1-28.8,28.7-28.8h72.5
			c15.6,0,28.1,12.5,28.8,28.1L447,281.8z"/>
	</g>
</g>
</svg>
